<?xml version="1.0" encoding="UTF-8"?>
<svg xmlns="http://www.w3.org/2000/svg" xmlns:xlink="http://www.w3.org/1999/xlink" version="1.1" id="Ebene_3" x="0px" y="0px" viewBox="0 0 94.165 53.399" style="enable-background:new 0 0 94.165 53.399;" xml:space="preserve">
<g>
	<g>
		<g>
			<path style="fill:#181716;" d="M5.952,38.006c-0.07,0.016-0.116,0.025-0.139,0.029c-0.023,0.004-0.07,0.006-0.139,0.006     c-0.178,0-0.327-0.031-0.447-0.093c-0.12-0.063-0.215-0.146-0.284-0.25c-0.07-0.104-0.118-0.224-0.145-0.359     c-0.027-0.136-0.041-0.28-0.041-0.436c-0.077,0.209-0.188,0.391-0.331,0.546c-0.143,0.154-0.307,0.284-0.493,0.389     c-0.186,0.104-0.387,0.184-0.603,0.237c-0.217,0.055-0.437,0.081-0.662,0.081c-0.278,0-0.54-0.04-0.783-0.121     s-0.457-0.199-0.638-0.354c-0.182-0.154-0.323-0.342-0.423-0.563s-0.151-0.47-0.151-0.748c0-0.519,0.18-0.927,0.54-1.225     c0.36-0.298,0.83-0.466,1.41-0.505l2.135-0.15v-0.568c0-0.479-0.145-0.82-0.435-1.021s-0.655-0.302-1.096-0.302     c-0.464,0-0.851,0.104-1.16,0.313c-0.31,0.209-0.48,0.53-0.511,0.963h-0.58c0.023-0.294,0.095-0.553,0.215-0.777     c0.12-0.224,0.278-0.413,0.476-0.568c0.197-0.154,0.427-0.272,0.69-0.354c0.263-0.081,0.553-0.122,0.87-0.122     c0.193,0,0.391,0.018,0.592,0.052c0.201,0.035,0.39,0.096,0.568,0.181c0.178,0.085,0.336,0.195,0.476,0.33     C5,32.752,5.109,32.92,5.187,33.121c0.069,0.178,0.112,0.359,0.127,0.545c0.016,0.187,0.023,0.376,0.023,0.569v2.646     c0,0.201,0.025,0.355,0.075,0.464s0.176,0.162,0.377,0.162c0.07,0,0.124-0.004,0.163-0.012V38.006z M4.757,35.024L2.68,35.151     c-0.433,0.031-0.777,0.153-1.033,0.366c-0.255,0.212-0.383,0.497-0.383,0.853c0,0.417,0.137,0.73,0.412,0.939     c0.274,0.209,0.621,0.313,1.038,0.313c0.364,0,0.675-0.067,0.934-0.203c0.259-0.135,0.47-0.312,0.632-0.528     c0.163-0.216,0.282-0.462,0.36-0.736c0.077-0.274,0.116-0.551,0.116-0.83V35.024z"></path>
			<path style="fill:#181716;" d="M11.591,37.994l-0.069-1.056c-0.085,0.186-0.196,0.354-0.331,0.505     c-0.135,0.15-0.29,0.278-0.464,0.383s-0.362,0.184-0.563,0.237c-0.202,0.055-0.402,0.082-0.604,0.082     c-0.673,0-1.182-0.189-1.526-0.569c-0.344-0.379-0.516-0.896-0.516-1.555v-3.828h0.58v3.794c0,0.51,0.116,0.903,0.348,1.178     s0.615,0.411,1.148,0.411c0.356,0,0.657-0.069,0.905-0.208c0.247-0.14,0.446-0.325,0.597-0.558     c0.151-0.231,0.259-0.497,0.325-0.795c0.065-0.297,0.099-0.604,0.099-0.922v-2.9h0.58v5.801H11.591z"></path>
			<path style="fill:#181716;" d="M17.183,37.948c-0.163,0.038-0.323,0.071-0.481,0.099c-0.159,0.026-0.319,0.04-0.481,0.04     c-0.542,0-0.926-0.156-1.155-0.47c-0.228-0.313-0.342-0.722-0.342-1.224v-3.655h-1.16v-0.534h1.16v-1.601l0.581-0.14v1.74h1.798     v0.534h-1.798v3.632c0,0.17,0.013,0.326,0.041,0.47c0.027,0.144,0.077,0.267,0.151,0.371c0.073,0.104,0.172,0.186,0.296,0.244     c0.124,0.058,0.282,0.087,0.476,0.087c0.155,0,0.308-0.01,0.458-0.029c0.151-0.02,0.304-0.044,0.458-0.075V37.948z"></path>
			<path style="fill:#181716;" d="M23.182,35.105c0,0.495-0.062,0.936-0.186,1.322s-0.336,0.731-0.638,1.033     c-0.201,0.201-0.443,0.367-0.725,0.498c-0.282,0.132-0.605,0.197-0.969,0.197c-0.364,0-0.687-0.065-0.969-0.197     c-0.283-0.131-0.524-0.297-0.725-0.498c-0.302-0.302-0.515-0.646-0.638-1.033c-0.124-0.387-0.186-0.827-0.186-1.322     s0.062-0.937,0.186-1.323c0.124-0.387,0.336-0.73,0.638-1.032c0.201-0.201,0.442-0.367,0.725-0.499     c0.282-0.132,0.605-0.197,0.969-0.197c0.363,0,0.687,0.065,0.969,0.197s0.524,0.298,0.725,0.499     c0.302,0.302,0.515,0.646,0.638,1.032S23.182,34.61,23.182,35.105z M22.59,35.105c0-0.379-0.043-0.735-0.128-1.067     c-0.085-0.333-0.259-0.635-0.522-0.905c-0.155-0.154-0.336-0.278-0.545-0.371s-0.453-0.14-0.731-0.14s-0.522,0.047-0.731,0.14     s-0.391,0.217-0.545,0.371c-0.263,0.271-0.437,0.572-0.522,0.905c-0.085,0.332-0.127,0.688-0.127,1.067s0.042,0.734,0.127,1.067     c0.085,0.332,0.259,0.634,0.522,0.905c0.155,0.154,0.336,0.278,0.545,0.371s0.453,0.139,0.731,0.139s0.522-0.046,0.731-0.139     s0.391-0.217,0.545-0.371c0.263-0.271,0.437-0.573,0.522-0.905C22.547,35.84,22.59,35.484,22.59,35.105z"></path>
			<path style="fill:#181716;" d="M32.406,38.006v-3.794c0-0.503-0.104-0.897-0.313-1.184c-0.208-0.286-0.564-0.43-1.067-0.43     c-0.224,0-0.419,0.035-0.586,0.104c-0.167,0.07-0.315,0.167-0.447,0.29c-0.224,0.217-0.395,0.473-0.51,0.767     c-0.116,0.294-0.174,0.614-0.174,0.963v3.283h-0.591v-3.794c0-0.503-0.106-0.897-0.319-1.184s-0.57-0.43-1.073-0.43     c-0.225,0-0.419,0.035-0.586,0.104c-0.167,0.07-0.315,0.167-0.447,0.29c-0.263,0.248-0.445,0.558-0.545,0.929     s-0.15,0.766-0.15,1.184v2.9h-0.581v-5.802h0.511l0.07,0.998c0.154-0.332,0.383-0.606,0.684-0.823     c0.302-0.217,0.662-0.325,1.079-0.325c0.511,0,0.915,0.114,1.212,0.342c0.298,0.229,0.505,0.532,0.621,0.911     c0.154-0.363,0.385-0.663,0.69-0.899c0.305-0.235,0.698-0.354,1.177-0.354c0.34,0,0.632,0.052,0.876,0.156     s0.443,0.252,0.598,0.441s0.269,0.414,0.342,0.673s0.11,0.544,0.11,0.853v3.829H32.406z"></path>
			<path style="fill:#181716;" d="M40.005,38.006c-0.07,0.016-0.116,0.025-0.139,0.029c-0.023,0.004-0.07,0.006-0.139,0.006     c-0.178,0-0.327-0.031-0.447-0.093c-0.12-0.063-0.215-0.146-0.284-0.25c-0.07-0.104-0.118-0.224-0.145-0.359     c-0.027-0.136-0.041-0.28-0.041-0.436c-0.077,0.209-0.188,0.391-0.331,0.546c-0.143,0.154-0.307,0.284-0.493,0.389     c-0.186,0.104-0.387,0.184-0.603,0.237c-0.217,0.055-0.437,0.081-0.662,0.081c-0.278,0-0.54-0.04-0.783-0.121     s-0.457-0.199-0.638-0.354c-0.182-0.154-0.323-0.342-0.423-0.563s-0.151-0.47-0.151-0.748c0-0.519,0.18-0.927,0.54-1.225     c0.36-0.298,0.83-0.466,1.41-0.505l2.135-0.15v-0.568c0-0.479-0.145-0.82-0.435-1.021s-0.655-0.302-1.096-0.302     c-0.464,0-0.851,0.104-1.16,0.313c-0.31,0.209-0.48,0.53-0.511,0.963h-0.58c0.023-0.294,0.095-0.553,0.215-0.777     c0.12-0.224,0.278-0.413,0.476-0.568c0.197-0.154,0.427-0.272,0.69-0.354c0.263-0.081,0.553-0.122,0.87-0.122     c0.193,0,0.391,0.018,0.592,0.052c0.201,0.035,0.39,0.096,0.568,0.181c0.178,0.085,0.336,0.195,0.476,0.33     c0.139,0.136,0.248,0.304,0.325,0.505c0.069,0.178,0.112,0.359,0.127,0.545c0.016,0.187,0.023,0.376,0.023,0.569v2.646     c0,0.201,0.025,0.355,0.075,0.464s0.176,0.162,0.377,0.162c0.07,0,0.124-0.004,0.163-0.012V38.006z M38.81,35.024l-2.077,0.127     c-0.433,0.031-0.777,0.153-1.033,0.366c-0.255,0.212-0.383,0.497-0.383,0.853c0,0.417,0.137,0.73,0.412,0.939     c0.274,0.209,0.621,0.313,1.038,0.313c0.364,0,0.675-0.067,0.934-0.203c0.259-0.135,0.47-0.312,0.632-0.528     c0.163-0.216,0.282-0.462,0.36-0.736c0.077-0.274,0.116-0.551,0.116-0.83V35.024z"></path>
			<path style="fill:#181716;" d="M44.438,37.948c-0.163,0.038-0.323,0.071-0.481,0.099c-0.159,0.026-0.319,0.04-0.481,0.04     c-0.542,0-0.926-0.156-1.155-0.47c-0.228-0.313-0.342-0.722-0.342-1.224v-3.655h-1.16v-0.534h1.16v-1.601l0.581-0.14v1.74h1.798     v0.534h-1.798v3.632c0,0.17,0.013,0.326,0.041,0.47c0.027,0.144,0.077,0.267,0.151,0.371c0.073,0.104,0.172,0.186,0.296,0.244     c0.124,0.058,0.282,0.087,0.476,0.087c0.155,0,0.308-0.01,0.458-0.029c0.151-0.02,0.304-0.044,0.458-0.075V37.948z"></path>
			<path style="fill:#181716;" d="M50.413,35.244h-4.432c0.007,0.341,0.063,0.66,0.168,0.957c0.104,0.298,0.25,0.56,0.435,0.783     c0.163,0.194,0.358,0.345,0.586,0.453s0.501,0.162,0.818,0.162c0.518,0,0.939-0.17,1.265-0.511     c0.108-0.107,0.199-0.228,0.272-0.359c0.073-0.132,0.129-0.286,0.168-0.464h0.603c-0.039,0.247-0.116,0.474-0.232,0.679     s-0.255,0.385-0.417,0.539c-0.209,0.209-0.455,0.374-0.737,0.493c-0.283,0.12-0.59,0.18-0.922,0.18     c-0.418,0-0.777-0.077-1.079-0.231c-0.302-0.155-0.557-0.352-0.766-0.592c-0.24-0.278-0.423-0.605-0.551-0.98     c-0.128-0.375-0.191-0.783-0.191-1.225c0-0.371,0.039-0.73,0.116-1.078c0.077-0.349,0.228-0.677,0.453-0.986     c0.495-0.673,1.152-1.01,1.973-1.01c0.394,0,0.744,0.077,1.05,0.232c0.306,0.154,0.564,0.361,0.777,0.62     c0.213,0.26,0.375,0.56,0.487,0.899c0.112,0.341,0.168,0.692,0.168,1.056L50.413,35.244z M49.833,34.711     c-0.008-0.278-0.054-0.544-0.139-0.795c-0.085-0.251-0.209-0.476-0.372-0.673c-0.162-0.197-0.359-0.354-0.592-0.47     c-0.232-0.116-0.495-0.175-0.789-0.175c-0.302,0-0.573,0.057-0.813,0.169s-0.443,0.265-0.609,0.458     c-0.167,0.193-0.296,0.418-0.389,0.673s-0.139,0.526-0.139,0.813H49.833z"></path>
			<path style="fill:#181716;" d="M56.156,38.006l-0.07-1.021c-0.077,0.179-0.186,0.341-0.325,0.487     c-0.139,0.147-0.294,0.271-0.464,0.372c-0.17,0.101-0.354,0.178-0.551,0.231c-0.197,0.055-0.393,0.081-0.586,0.081     c-0.333,0-0.625-0.048-0.876-0.145s-0.474-0.23-0.667-0.4c-0.325-0.286-0.565-0.647-0.72-1.085     c-0.155-0.437-0.232-0.906-0.232-1.409c0-0.479,0.074-0.937,0.221-1.369c0.146-0.434,0.375-0.797,0.685-1.091     c0.193-0.186,0.419-0.333,0.679-0.441c0.259-0.108,0.559-0.162,0.899-0.162c0.209,0,0.412,0.027,0.609,0.081     c0.197,0.055,0.381,0.132,0.551,0.232c0.17,0.101,0.323,0.221,0.458,0.359c0.135,0.14,0.242,0.29,0.319,0.452v-3.55h0.581v8.377     H56.156z M56.098,35.105c0-0.434-0.054-0.818-0.162-1.154c-0.108-0.337-0.298-0.629-0.569-0.876     c-0.147-0.14-0.319-0.25-0.516-0.331s-0.431-0.122-0.702-0.122c-0.271,0-0.507,0.047-0.708,0.14     c-0.201,0.093-0.379,0.217-0.534,0.371c-0.225,0.248-0.389,0.545-0.493,0.894c-0.104,0.348-0.157,0.708-0.157,1.079     c0,0.417,0.06,0.809,0.18,1.172c0.12,0.363,0.315,0.665,0.586,0.904c0.147,0.132,0.313,0.232,0.499,0.302     c0.186,0.07,0.402,0.104,0.65,0.104c0.255,0,0.479-0.042,0.673-0.127s0.363-0.197,0.51-0.337     c0.263-0.255,0.453-0.555,0.569-0.899C56.04,35.881,56.098,35.508,56.098,35.105z"></path>
			<path style="fill:#181716;" d="M5.047,52.459v-3.295c-0.077,0.162-0.184,0.313-0.319,0.452c-0.135,0.14-0.288,0.26-0.458,0.36     c-0.17,0.101-0.354,0.178-0.551,0.231c-0.197,0.055-0.4,0.081-0.609,0.081c-0.34,0-0.64-0.054-0.899-0.162     c-0.259-0.108-0.486-0.255-0.679-0.44c-0.31-0.294-0.538-0.658-0.685-1.091c-0.147-0.434-0.221-0.89-0.221-1.369     c0-0.503,0.077-0.973,0.232-1.41c0.155-0.437,0.395-0.798,0.72-1.085c0.193-0.17,0.416-0.303,0.667-0.399     s0.543-0.146,0.876-0.146c0.193,0,0.389,0.027,0.586,0.081c0.197,0.055,0.381,0.132,0.551,0.232     c0.17,0.101,0.325,0.225,0.464,0.371c0.139,0.147,0.248,0.31,0.325,0.487l0.07-1.021h0.511v8.122H5.047z M5.059,47.238     c0-0.402-0.058-0.775-0.174-1.12c-0.116-0.344-0.306-0.644-0.569-0.899c-0.147-0.139-0.317-0.251-0.51-0.336     s-0.417-0.128-0.673-0.128c-0.248,0-0.464,0.035-0.65,0.104s-0.352,0.17-0.499,0.302c-0.271,0.24-0.466,0.542-0.586,0.905     c-0.12,0.363-0.18,0.754-0.18,1.172c0,0.371,0.052,0.73,0.157,1.079c0.104,0.348,0.269,0.646,0.493,0.894     c0.154,0.154,0.333,0.278,0.534,0.371c0.201,0.093,0.437,0.139,0.708,0.139c0.271,0,0.505-0.04,0.702-0.121     c0.197-0.082,0.369-0.192,0.516-0.331c0.271-0.247,0.46-0.54,0.569-0.876C5.004,48.056,5.059,47.671,5.059,47.238z"></path>
			<path style="fill:#181716;" d="M11.916,50.127l-0.069-1.056c-0.085,0.186-0.196,0.354-0.331,0.505     c-0.135,0.15-0.29,0.278-0.464,0.383s-0.362,0.184-0.563,0.237c-0.202,0.055-0.402,0.082-0.604,0.082     c-0.673,0-1.182-0.189-1.526-0.569c-0.344-0.379-0.516-0.896-0.516-1.555v-3.828h0.58v3.794c0,0.51,0.116,0.903,0.348,1.178     s0.615,0.411,1.148,0.411c0.356,0,0.657-0.069,0.905-0.208c0.247-0.14,0.446-0.325,0.597-0.558     c0.151-0.231,0.259-0.497,0.325-0.795c0.065-0.297,0.099-0.604,0.099-0.922v-2.9h0.58v5.801H11.916z"></path>
			<path style="fill:#181716;" d="M19.562,50.139c-0.07,0.016-0.116,0.025-0.139,0.029c-0.023,0.004-0.07,0.006-0.139,0.006     c-0.178,0-0.327-0.031-0.447-0.093c-0.12-0.063-0.215-0.146-0.284-0.25c-0.07-0.104-0.118-0.224-0.145-0.359     c-0.027-0.136-0.041-0.28-0.041-0.436c-0.077,0.209-0.188,0.391-0.331,0.546c-0.143,0.154-0.307,0.284-0.493,0.389     c-0.186,0.104-0.387,0.184-0.603,0.237c-0.217,0.055-0.437,0.081-0.662,0.081c-0.278,0-0.54-0.04-0.783-0.121     s-0.457-0.199-0.638-0.354c-0.182-0.154-0.323-0.342-0.423-0.563s-0.151-0.47-0.151-0.748c0-0.519,0.18-0.927,0.54-1.225     c0.36-0.298,0.83-0.466,1.41-0.505l2.135-0.15v-0.568c0-0.479-0.145-0.82-0.435-1.021s-0.655-0.302-1.096-0.302     c-0.464,0-0.851,0.104-1.16,0.313c-0.31,0.209-0.48,0.53-0.511,0.963h-0.58c0.023-0.294,0.095-0.553,0.215-0.777     c0.12-0.224,0.278-0.413,0.476-0.568c0.197-0.154,0.427-0.272,0.69-0.354c0.263-0.081,0.553-0.122,0.87-0.122     c0.193,0,0.391,0.018,0.592,0.052c0.201,0.035,0.39,0.096,0.568,0.181c0.178,0.085,0.336,0.195,0.476,0.33     c0.139,0.136,0.248,0.304,0.325,0.505c0.069,0.178,0.112,0.359,0.127,0.545c0.016,0.187,0.023,0.376,0.023,0.569v2.646     c0,0.201,0.025,0.355,0.075,0.464s0.176,0.162,0.377,0.162c0.07,0,0.124-0.004,0.163-0.012V50.139z M18.367,47.157l-2.077,0.127     c-0.433,0.031-0.777,0.153-1.033,0.366c-0.255,0.212-0.383,0.497-0.383,0.853c0,0.417,0.137,0.73,0.412,0.939     c0.274,0.209,0.621,0.313,1.038,0.313c0.364,0,0.675-0.067,0.934-0.203c0.259-0.135,0.47-0.312,0.632-0.528     c0.163-0.216,0.282-0.462,0.36-0.736c0.077-0.274,0.116-0.551,0.116-0.83V47.157z"></path>
			<path style="fill:#181716;" d="M22.95,50.139c-0.062,0.016-0.134,0.031-0.215,0.047c-0.081,0.015-0.184,0.022-0.308,0.022     c-0.371,0-0.657-0.099-0.858-0.296s-0.302-0.508-0.302-0.934v-7.217h0.58v7.193c0,0.201,0.039,0.367,0.116,0.499     c0.077,0.132,0.24,0.197,0.487,0.197c0.116,0,0.207,0,0.272,0c0.066,0,0.141-0.008,0.227-0.023V50.139z"></path>
			<path style="fill:#181716;" d="M24.527,42.725v-0.813h0.813v0.813H24.527z M24.632,50.139v-5.802h0.615v5.802H24.632z"></path>
			<path style="fill:#181716;" d="M30.375,50.081c-0.163,0.038-0.323,0.071-0.481,0.099c-0.159,0.026-0.319,0.04-0.481,0.04     c-0.542,0-0.926-0.156-1.155-0.47c-0.228-0.313-0.342-0.722-0.342-1.224v-3.655h-1.16v-0.534h1.16v-1.601l0.581-0.14v1.74h1.798     v0.534h-1.798v3.632c0,0.17,0.013,0.326,0.041,0.47c0.027,0.144,0.077,0.267,0.151,0.371c0.073,0.104,0.172,0.186,0.296,0.244     c0.124,0.058,0.282,0.087,0.476,0.087c0.155,0,0.308-0.01,0.458-0.029c0.151-0.02,0.304-0.044,0.458-0.075V50.081z"></path>
			<path style="fill:#181716;" d="M33.531,51.38c-0.147,0.379-0.346,0.671-0.598,0.876s-0.574,0.308-0.969,0.308     c-0.116,0-0.22-0.004-0.313-0.012s-0.17-0.02-0.232-0.034c-0.077-0.016-0.139-0.035-0.186-0.059v-0.487     c0.077,0.016,0.159,0.027,0.244,0.035c0.139,0.023,0.294,0.035,0.464,0.035c0.278,0,0.499-0.082,0.661-0.244     s0.294-0.367,0.395-0.615l0.371-0.951l-2.378-5.895h0.626l2.031,5.152l1.949-5.152h0.626L33.531,51.38z"></path>
			<path style="fill:#181716;" d="M44.878,50.139c-0.07,0.016-0.116,0.025-0.139,0.029c-0.023,0.004-0.07,0.006-0.139,0.006     c-0.178,0-0.327-0.031-0.447-0.093c-0.12-0.063-0.215-0.146-0.284-0.25c-0.07-0.104-0.118-0.224-0.145-0.359     c-0.027-0.136-0.041-0.28-0.041-0.436c-0.077,0.209-0.188,0.391-0.331,0.546c-0.143,0.154-0.307,0.284-0.493,0.389     c-0.186,0.104-0.387,0.184-0.603,0.237c-0.217,0.055-0.437,0.081-0.662,0.081c-0.278,0-0.54-0.04-0.783-0.121     s-0.457-0.199-0.638-0.354c-0.182-0.154-0.323-0.342-0.423-0.563s-0.151-0.47-0.151-0.748c0-0.519,0.18-0.927,0.54-1.225     c0.36-0.298,0.83-0.466,1.41-0.505l2.135-0.15v-0.568c0-0.479-0.145-0.82-0.435-1.021s-0.655-0.302-1.096-0.302     c-0.464,0-0.851,0.104-1.16,0.313c-0.31,0.209-0.48,0.53-0.511,0.963H39.9c0.023-0.294,0.095-0.553,0.215-0.777     c0.12-0.224,0.278-0.413,0.476-0.568c0.197-0.154,0.427-0.272,0.69-0.354c0.263-0.081,0.553-0.122,0.87-0.122     c0.193,0,0.391,0.018,0.592,0.052c0.201,0.035,0.39,0.096,0.568,0.181c0.178,0.085,0.336,0.195,0.476,0.33     c0.139,0.136,0.248,0.304,0.325,0.505c0.069,0.178,0.112,0.359,0.127,0.545c0.016,0.187,0.023,0.376,0.023,0.569v2.646     c0,0.201,0.025,0.355,0.075,0.464s0.176,0.162,0.377,0.162c0.07,0,0.124-0.004,0.163-0.012V50.139z M43.683,47.157l-2.077,0.127     c-0.433,0.031-0.777,0.153-1.033,0.366c-0.255,0.212-0.383,0.497-0.383,0.853c0,0.417,0.137,0.73,0.412,0.939     c0.274,0.209,0.621,0.313,1.038,0.313c0.364,0,0.675-0.067,0.934-0.203c0.259-0.135,0.47-0.312,0.632-0.528     c0.163-0.216,0.282-0.462,0.36-0.736c0.077-0.274,0.116-0.551,0.116-0.83V47.157z"></path>
			<path style="fill:#181716;" d="M50.76,48.526c0,0.409-0.131,0.766-0.394,1.067c-0.209,0.231-0.478,0.405-0.807,0.521     s-0.687,0.174-1.073,0.174c-0.395,0-0.754-0.062-1.079-0.186c-0.325-0.123-0.6-0.309-0.824-0.557     c-0.163-0.186-0.28-0.367-0.354-0.545c-0.073-0.178-0.118-0.387-0.133-0.627h0.592c0.031,0.341,0.174,0.639,0.429,0.894     c0.17,0.162,0.372,0.28,0.604,0.354c0.232,0.074,0.487,0.11,0.766,0.11c0.302,0,0.568-0.034,0.801-0.104     c0.232-0.069,0.421-0.178,0.568-0.324c0.108-0.108,0.188-0.217,0.238-0.325s0.076-0.248,0.076-0.418     c0-0.263-0.091-0.493-0.273-0.69s-0.447-0.318-0.794-0.365l-1.125-0.15c-0.24-0.031-0.478-0.089-0.714-0.175     c-0.236-0.085-0.435-0.22-0.598-0.406c-0.216-0.255-0.325-0.561-0.325-0.916c0-0.232,0.044-0.442,0.133-0.633     c0.089-0.189,0.211-0.354,0.366-0.493c0.209-0.192,0.451-0.332,0.725-0.417s0.563-0.128,0.864-0.128     c0.348,0,0.677,0.057,0.986,0.168c0.309,0.112,0.564,0.284,0.766,0.517c0.132,0.155,0.236,0.325,0.313,0.511     c0.077,0.186,0.12,0.371,0.127,0.557h-0.58c-0.016-0.093-0.044-0.205-0.087-0.337c-0.042-0.131-0.11-0.251-0.203-0.359     c-0.131-0.154-0.31-0.278-0.534-0.371c-0.225-0.093-0.487-0.14-0.789-0.14c-0.449,0-0.796,0.09-1.044,0.268     c-0.302,0.217-0.453,0.483-0.453,0.8c0,0.248,0.077,0.457,0.232,0.627s0.453,0.286,0.894,0.348l1.102,0.151     c0.271,0.039,0.507,0.11,0.708,0.215s0.367,0.229,0.499,0.377c0.131,0.146,0.23,0.308,0.295,0.481     C50.728,48.172,50.76,48.348,50.76,48.526z"></path>
			<path style="fill:#181716;" d="M56.735,48.526c0,0.409-0.131,0.766-0.394,1.067c-0.209,0.231-0.478,0.405-0.807,0.521     s-0.687,0.174-1.073,0.174c-0.395,0-0.754-0.062-1.079-0.186c-0.325-0.123-0.6-0.309-0.824-0.557     c-0.163-0.186-0.28-0.367-0.354-0.545c-0.073-0.178-0.118-0.387-0.133-0.627h0.592c0.031,0.341,0.174,0.639,0.429,0.894     c0.17,0.162,0.372,0.28,0.604,0.354c0.232,0.074,0.487,0.11,0.766,0.11c0.302,0,0.568-0.034,0.801-0.104     c0.232-0.069,0.421-0.178,0.568-0.324c0.108-0.108,0.188-0.217,0.238-0.325s0.076-0.248,0.076-0.418     c0-0.263-0.091-0.493-0.273-0.69s-0.447-0.318-0.794-0.365l-1.125-0.15c-0.24-0.031-0.478-0.089-0.714-0.175     c-0.236-0.085-0.435-0.22-0.598-0.406c-0.216-0.255-0.325-0.561-0.325-0.916c0-0.232,0.044-0.442,0.133-0.633     c0.089-0.189,0.211-0.354,0.366-0.493c0.209-0.192,0.451-0.332,0.725-0.417s0.563-0.128,0.864-0.128     c0.348,0,0.677,0.057,0.986,0.168c0.309,0.112,0.564,0.284,0.766,0.517c0.132,0.155,0.236,0.325,0.313,0.511     c0.077,0.186,0.12,0.371,0.127,0.557h-0.58c-0.016-0.093-0.044-0.205-0.087-0.337c-0.042-0.131-0.11-0.251-0.203-0.359     c-0.131-0.154-0.31-0.278-0.534-0.371c-0.225-0.093-0.487-0.14-0.789-0.14c-0.449,0-0.796,0.09-1.044,0.268     c-0.302,0.217-0.453,0.483-0.453,0.8c0,0.248,0.077,0.457,0.232,0.627s0.453,0.286,0.894,0.348l1.102,0.151     c0.271,0.039,0.507,0.11,0.708,0.215s0.367,0.229,0.499,0.377c0.131,0.146,0.23,0.308,0.295,0.481     C56.703,48.172,56.735,48.348,56.735,48.526z"></path>
			<path style="fill:#181716;" d="M62.525,50.127l-0.069-1.056c-0.085,0.186-0.196,0.354-0.331,0.505     c-0.135,0.15-0.29,0.278-0.464,0.383s-0.362,0.184-0.563,0.237c-0.202,0.055-0.402,0.082-0.604,0.082     c-0.673,0-1.182-0.189-1.526-0.569c-0.344-0.379-0.516-0.896-0.516-1.555v-3.828h0.58v3.794c0,0.51,0.116,0.903,0.348,1.178     s0.615,0.411,1.148,0.411c0.356,0,0.657-0.069,0.905-0.208c0.247-0.14,0.446-0.325,0.597-0.558     c0.151-0.231,0.259-0.497,0.325-0.795c0.065-0.297,0.099-0.604,0.099-0.922v-2.9h0.58v5.801H62.525z"></path>
			<path style="fill:#181716;" d="M68.361,44.895c-0.093-0.023-0.188-0.039-0.284-0.047s-0.191-0.012-0.284-0.012     c-0.364,0-0.664,0.074-0.899,0.221c-0.236,0.147-0.423,0.341-0.563,0.58c-0.139,0.24-0.238,0.511-0.296,0.813     s-0.087,0.604-0.087,0.905v2.784h-0.581v-5.802h0.511l0.07,1.172c0.131-0.401,0.369-0.707,0.713-0.916s0.721-0.313,1.131-0.313     c0.093,0,0.188,0.002,0.284,0.006s0.191,0.014,0.284,0.029V44.895z"></path>
			<path style="fill:#181716;" d="M74.511,50.139c-0.07,0.016-0.116,0.025-0.139,0.029c-0.023,0.004-0.07,0.006-0.139,0.006     c-0.178,0-0.327-0.031-0.447-0.093c-0.12-0.063-0.215-0.146-0.284-0.25c-0.07-0.104-0.118-0.224-0.145-0.359     c-0.027-0.136-0.041-0.28-0.041-0.436c-0.077,0.209-0.188,0.391-0.331,0.546c-0.143,0.154-0.307,0.284-0.493,0.389     c-0.186,0.104-0.387,0.184-0.603,0.237c-0.217,0.055-0.437,0.081-0.662,0.081c-0.278,0-0.54-0.04-0.783-0.121     s-0.457-0.199-0.638-0.354c-0.182-0.154-0.323-0.342-0.423-0.563s-0.151-0.47-0.151-0.748c0-0.519,0.18-0.927,0.54-1.225     c0.36-0.298,0.83-0.466,1.41-0.505l2.135-0.15v-0.568c0-0.479-0.145-0.82-0.435-1.021s-0.655-0.302-1.096-0.302     c-0.464,0-0.851,0.104-1.16,0.313c-0.31,0.209-0.48,0.53-0.511,0.963h-0.58c0.023-0.294,0.095-0.553,0.215-0.777     c0.12-0.224,0.278-0.413,0.476-0.568c0.197-0.154,0.427-0.272,0.69-0.354c0.263-0.081,0.553-0.122,0.87-0.122     c0.193,0,0.391,0.018,0.592,0.052c0.201,0.035,0.39,0.096,0.568,0.181c0.178,0.085,0.336,0.195,0.476,0.33     c0.139,0.136,0.248,0.304,0.325,0.505c0.069,0.178,0.112,0.359,0.127,0.545c0.016,0.187,0.023,0.376,0.023,0.569v2.646     c0,0.201,0.025,0.355,0.075,0.464s0.176,0.162,0.377,0.162c0.07,0,0.124-0.004,0.163-0.012V50.139z M73.315,47.157l-2.077,0.127     c-0.433,0.031-0.777,0.153-1.033,0.366c-0.255,0.212-0.383,0.497-0.383,0.853c0,0.417,0.137,0.73,0.412,0.939     c0.274,0.209,0.621,0.313,1.038,0.313c0.364,0,0.675-0.067,0.934-0.203c0.259-0.135,0.47-0.312,0.632-0.528     c0.163-0.216,0.282-0.462,0.36-0.736c0.077-0.274,0.116-0.551,0.116-0.83V47.157z"></path>
			<path style="fill:#181716;" d="M80.253,50.139v-3.794c0-0.511-0.116-0.903-0.348-1.178c-0.232-0.274-0.615-0.412-1.148-0.412     c-0.356,0-0.658,0.071-0.905,0.215c-0.248,0.144-0.447,0.331-0.598,0.563c-0.151,0.232-0.259,0.497-0.325,0.795     c-0.066,0.298-0.099,0.602-0.099,0.911v2.9H76.25v-5.802h0.511l0.07,1.057c0.077-0.186,0.186-0.353,0.325-0.499     c0.139-0.147,0.296-0.272,0.47-0.377c0.174-0.104,0.362-0.186,0.563-0.244c0.201-0.058,0.402-0.087,0.603-0.087     c0.673,0,1.182,0.189,1.526,0.568s0.516,0.897,0.516,1.555v3.829H80.253z"></path>
			<path style="fill:#181716;" d="M87.331,48.306c-0.039,0.278-0.122,0.539-0.25,0.783c-0.128,0.243-0.29,0.454-0.487,0.632     c-0.197,0.179-0.426,0.317-0.685,0.418c-0.259,0.101-0.54,0.15-0.841,0.15c-0.364,0-0.688-0.063-0.975-0.191     c-0.286-0.127-0.53-0.291-0.731-0.493c-0.302-0.301-0.513-0.647-0.632-1.038c-0.12-0.391-0.18-0.833-0.18-1.328     s0.06-0.938,0.18-1.329c0.12-0.391,0.331-0.736,0.632-1.038c0.201-0.201,0.445-0.365,0.731-0.493s0.611-0.191,0.975-0.191     c0.302,0,0.582,0.047,0.841,0.14c0.259,0.093,0.485,0.226,0.679,0.399c0.193,0.175,0.352,0.382,0.476,0.621     c0.124,0.24,0.205,0.507,0.244,0.801h-0.604c-0.062-0.402-0.24-0.735-0.534-0.998s-0.661-0.395-1.102-0.395     c-0.278,0-0.524,0.045-0.737,0.134s-0.396,0.211-0.551,0.365c-0.263,0.271-0.435,0.574-0.516,0.911     c-0.081,0.336-0.122,0.694-0.122,1.073s0.041,0.738,0.122,1.079c0.081,0.34,0.253,0.646,0.516,0.916     c0.31,0.325,0.739,0.487,1.288,0.487c0.449,0,0.818-0.137,1.108-0.411c0.29-0.275,0.47-0.609,0.54-1.004H87.331z"></path>
			<path style="fill:#181716;" d="M93.539,47.377h-4.432c0.007,0.341,0.063,0.66,0.168,0.957c0.104,0.298,0.25,0.56,0.435,0.783     c0.163,0.194,0.358,0.345,0.586,0.453s0.501,0.162,0.818,0.162c0.518,0,0.939-0.17,1.265-0.511     c0.108-0.107,0.199-0.228,0.272-0.359c0.073-0.132,0.129-0.286,0.168-0.464h0.603c-0.039,0.247-0.116,0.474-0.232,0.679     s-0.255,0.385-0.417,0.539c-0.209,0.209-0.455,0.374-0.737,0.493c-0.283,0.12-0.59,0.18-0.922,0.18     c-0.418,0-0.777-0.077-1.079-0.231c-0.302-0.155-0.557-0.352-0.766-0.592c-0.24-0.278-0.423-0.605-0.551-0.98     c-0.128-0.375-0.191-0.783-0.191-1.225c0-0.371,0.039-0.73,0.116-1.078c0.077-0.349,0.228-0.677,0.453-0.986     c0.495-0.673,1.152-1.01,1.973-1.01c0.394,0,0.744,0.077,1.05,0.232c0.306,0.154,0.564,0.361,0.777,0.62     c0.213,0.26,0.375,0.56,0.487,0.899c0.112,0.341,0.168,0.692,0.168,1.056L93.539,47.377z M92.958,46.844     c-0.008-0.278-0.054-0.544-0.139-0.795c-0.085-0.251-0.209-0.476-0.372-0.673c-0.162-0.197-0.359-0.354-0.592-0.47     c-0.232-0.116-0.495-0.175-0.789-0.175c-0.302,0-0.573,0.057-0.813,0.169s-0.443,0.265-0.609,0.458     c-0.167,0.193-0.296,0.418-0.389,0.673s-0.139,0.526-0.139,0.813H92.958z"></path>
		</g>
	</g>
	<g>
		<path style="fill:#3F3F3E;" d="M12.463,0.458h-1.779L1.316,25.156h1.877l2.439-6.518h11.947l2.509,6.518h1.848L12.463,0.458z     M6.293,16.935l5.261-13.968l5.365,13.968H6.293z"></path>
		<path style="fill:#3F3F3E;" d="M50.244,0.458V10.95c0.585-0.527,1.188-1.06,1.813-1.593V0.458H50.244z"></path>
		<path style="fill:#3F3F3E;" d="M67.767,0.459v15.637c0,5.434-2.856,9.507-8.777,9.507c-4.027,0-6.622-1.883-7.868-4.803    c0.435-0.463,0.904-0.944,1.402-1.443c0.863,2.665,2.932,4.507,6.466,4.507c4.844,0,6.97-3.447,6.97-7.734V0.459H67.767z"></path>
		<path style="fill:#3F3F3E;" d="M83.141,0.458h-1.773l-9.374,24.698h1.883l2.439-6.518h11.947l2.509,6.518h1.848L83.141,0.458z     M76.976,16.935l5.261-13.968l5.365,13.968H76.976z"></path>
		<g>
			<path style="fill:#9BC33B;" d="M62.631,7.381c-3.899,2.711-7.688,5.996-10.573,8.789c-0.597,0.574-1.17,1.141-1.703,1.686     c-0.608,0.614-1.182,1.205-1.703,1.767c-0.284,0.301-0.556,0.591-0.817,0.875c-1.813,1.958-2.966,3.36-3.262,3.719l-1.831,2.109     l-1.831-2.109c-0.232-0.284-0.991-1.211-2.19-2.543c-0.545-0.608-1.176-1.298-1.889-2.051c-0.521-0.562-1.703-1.767-1.703-1.767     l1.715-1.819c0,0,0.521,0.521,0.707,0.707c0.284,0.29,0.568,0.579,0.852,0.863c0.209,0.214,0.417,0.435,0.626,0.649     c0.614,0.649,1.211,1.292,1.779,1.912l1.935,2.115l1.935-2.115c0.568-0.62,1.165-1.263,1.779-1.912     c0.209-0.214,0.417-0.435,0.626-0.649c0.284-0.284,0.568-0.574,0.852-0.863c0.382-0.382,0.765-0.765,1.153-1.147     c0.388-0.377,0.771-0.747,1.159-1.112c0.603-0.568,1.211-1.124,1.813-1.663c2.665-2.399,5.348-4.536,8.001-6.39l1.362-0.944     L62.631,7.381z"></path>
		</g>
		<path style="fill:#3F3F3E;" d="M47.336,13.661c-0.023,0.023-0.046,0.046-0.07,0.07c-1.773,1.744-3.297,3.349-4.502,4.67v0.006    c-0.006,0-0.006,0.006-0.012,0.006c0,0,0-0.006-0.006-0.006L42.741,18.4c-1.199-1.321-2.723-2.926-4.502-4.67l-0.07-0.07h3.696    c0.006-0.301,0.006-0.591,0.006-0.875c0-2.839-0.099-6.518-2.323-8.87c-0.064-0.075-0.145-0.151-0.22-0.22V3.691    c-0.162-0.156-0.324-0.301-0.504-0.435c0-0.006,0-0.006-0.006-0.006c-0.174-0.139-0.353-0.266-0.545-0.382    c-0.098-0.064-0.197-0.122-0.295-0.174c-0.197-0.11-0.4-0.209-0.608-0.301c-0.939-0.406-1.981-0.614-3.059-0.614    c-1.078,0-2.12,0.209-3.059,0.614c-0.209,0.087-0.411,0.191-0.608,0.301c-0.295,0.162-0.579,0.348-0.846,0.562    c-0.093,0.07-0.18,0.139-0.261,0.214c-0.081,0.07-0.162,0.145-0.243,0.22v0.006c-0.075,0.07-0.151,0.145-0.22,0.22    c-0.295,0.307-0.545,0.631-0.759,0.973c-0.058,0.087-0.11,0.168-0.162,0.255c-1.333,2.283-1.402,5.261-1.402,7.642    c0,2.926,0.104,6.79,2.543,9.125c0.4,0.388,0.852,0.724,1.344,0.996c0.098,0.058,0.203,0.11,0.301,0.162    c0.307,0.151,0.626,0.278,0.95,0.382c0.765,0.249,1.582,0.377,2.422,0.377c0.324,0,0.649-0.017,0.962-0.058    c0.093-0.006,0.18-0.023,0.266-0.035c0.33-0.052,0.655-0.127,0.973-0.22c0.093-0.023,0.185-0.052,0.278-0.087    c0.492,0.545,0.904,1.02,1.24,1.414c-0.133,0.058-0.272,0.116-0.411,0.168c-0.145,0.058-0.284,0.104-0.429,0.151    c-0.127,0.046-0.261,0.081-0.394,0.116c-0.122,0.035-0.243,0.064-0.365,0.093c-0.116,0.029-0.238,0.052-0.359,0.07    c-0.122,0.029-0.249,0.046-0.377,0.064c-0.11,0.017-0.22,0.035-0.33,0.041c-0.156,0.017-0.313,0.035-0.475,0.041    c-0.191,0.012-0.382,0.017-0.579,0.017c-0.672,0-1.309-0.064-1.906-0.185c-0.301-0.064-0.591-0.133-0.875-0.22    c-0.284-0.087-0.556-0.191-0.817-0.295c-0.133-0.058-0.267-0.116-0.394-0.18c-0.255-0.122-0.498-0.255-0.736-0.394    c0,0,0,0-0.006-0.006c-0.232-0.139-0.463-0.295-0.684-0.452c-0.214-0.162-0.423-0.324-0.62-0.504    c-0.006,0-0.012-0.006-0.012-0.006c-0.046-0.041-0.093-0.087-0.139-0.127c-0.052-0.046-0.104-0.093-0.151-0.139h-0.006    c-0.087-0.087-0.168-0.168-0.249-0.249v-0.006c-0.162-0.174-0.313-0.348-0.463-0.527c-0.07-0.093-0.145-0.191-0.214-0.284    c-0.203-0.278-0.394-0.568-0.562-0.869c-1.414-2.497-1.605-5.597-1.605-8.372c0-3.557,0.313-7.595,3.1-10.278    c0.099-0.093,0.197-0.185,0.301-0.272c0.098-0.093,0.197-0.174,0.301-0.255C28.68,1.9,28.79,1.813,28.9,1.732    c0.324-0.238,0.672-0.458,1.043-0.66C31.177,0.406,32.637,0,34.311,0c1.674,0,3.134,0.406,4.368,1.072    c0.22,0.122,0.429,0.243,0.631,0.377c0.209,0.139,0.406,0.278,0.597,0.429c0.261,0.197,0.51,0.406,0.742,0.632    c0.087,0.081,0.174,0.168,0.255,0.255c0.104,0.11,0.203,0.22,0.295,0.33c0.098,0.11,0.185,0.226,0.278,0.336v0.006    c0.087,0.116,0.174,0.232,0.255,0.348c0.081,0.122,0.162,0.243,0.238,0.365c0.18,0.29,0.342,0.591,0.492,0.904    c1.124,2.37,1.286,5.179,1.286,7.734c0,0.29,0,0.579-0.006,0.875H47.336z"></path>
	</g>
</g>
</svg>
