<?xml version="1.0" encoding="iso-8859-1"?>
<!-- Generator: Adobe Illustrator 26.0.3, SVG Export Plug-In . SVG Version: 6.00 Build 0)  -->
<svg version="1.1" xmlns="http://www.w3.org/2000/svg" xmlns:xlink="http://www.w3.org/1999/xlink" x="0px" y="0px"
	 viewBox="0 0 177.039 53.4" style="enable-background:new 0 0 177.039 53.4;" xml:space="preserve">
<g id="Hilfslinie">
</g>
<g id="Logo">
	<g>
		<path style="fill:#83B818;" d="M57.426,13.512v23.644c0,3.379-1.757,4.932-4.935,4.932h-8.643c-3.177,0-4.934-1.553-4.934-4.932
			V13.512H13.581V0H6.959v13.512H0V20.2h6.959v16.82c0,7.232,4.863,11.689,11.554,11.689h3.445l0.135-6.687h-3.58
			c-3.175,0-4.932-1.689-4.932-5.002V20.2h18.711v16.956c0,7.162,5.001,11.553,11.555,11.553h8.643
			c6.556,0,11.555-4.391,11.555-11.553V13.512H57.426L57.426,13.512z"/>
		<g>
			<path style="fill:#1A1A18;" d="M87.018,25.017l-0.135-1.99c-0.151,0.347-0.362,0.664-0.633,0.95
				c-0.271,0.287-0.573,0.528-0.905,0.724c-0.332,0.196-0.69,0.347-1.075,0.453c-0.385,0.105-0.766,0.158-1.142,0.158
				c-0.648,0-1.218-0.094-1.707-0.283c-0.49-0.188-0.924-0.448-1.301-0.781c-0.633-0.558-1.101-1.263-1.402-2.115
				c-0.302-0.852-0.453-1.768-0.453-2.748c0-0.935,0.143-1.824,0.43-2.669c0.286-0.844,0.731-1.553,1.335-2.126
				c0.377-0.362,0.818-0.648,1.323-0.859c0.505-0.211,1.089-0.317,1.753-0.317c0.407,0,0.803,0.053,1.188,0.158
				c0.385,0.106,0.742,0.256,1.075,0.453c0.331,0.196,0.629,0.429,0.893,0.701c0.264,0.272,0.471,0.566,0.622,0.882V8.687h1.131
				v16.331H87.018z M86.905,19.362c0-0.844-0.106-1.595-0.317-2.251c-0.212-0.656-0.581-1.225-1.108-1.708
				c-0.287-0.271-0.622-0.486-1.007-0.645c-0.385-0.158-0.841-0.237-1.369-0.237s-0.988,0.091-1.379,0.271
				c-0.392,0.181-0.739,0.423-1.041,0.724c-0.438,0.483-0.758,1.063-0.961,1.742c-0.204,0.679-0.305,1.38-0.305,2.103
				c0,0.814,0.116,1.576,0.351,2.284c0.233,0.709,0.614,1.297,1.142,1.764c0.286,0.256,0.611,0.453,0.973,0.588
				c0.362,0.136,0.784,0.203,1.267,0.203c0.498,0,0.935-0.082,1.312-0.249c0.377-0.166,0.709-0.385,0.995-0.656
				c0.512-0.497,0.882-1.082,1.108-1.753C86.792,20.875,86.905,20.147,86.905,19.362z"/>
			<path style="fill:#1A1A18;" d="M101.381,19.362c0,0.965-0.121,1.825-0.362,2.578c-0.241,0.754-0.656,1.425-1.244,2.013
				c-0.392,0.392-0.863,0.717-1.414,0.973c-0.55,0.256-1.18,0.385-1.889,0.385c-0.709,0-1.338-0.128-1.889-0.385
				c-0.551-0.256-1.022-0.58-1.414-0.973c-0.588-0.588-1.003-1.259-1.244-2.013c-0.241-0.754-0.362-1.613-0.362-2.578
				c0-0.965,0.12-1.824,0.362-2.578c0.241-0.754,0.656-1.425,1.244-2.013c0.392-0.392,0.863-0.716,1.414-0.973
				c0.55-0.256,1.18-0.384,1.889-0.384c0.708,0,1.338,0.128,1.889,0.384c0.55,0.257,1.022,0.581,1.414,0.973
				c0.588,0.588,1.002,1.259,1.244,2.013C101.26,17.538,101.381,18.398,101.381,19.362z M100.228,19.362
				c0-0.738-0.083-1.432-0.249-2.081c-0.166-0.648-0.505-1.236-1.018-1.764c-0.302-0.301-0.656-0.543-1.063-0.724
				c-0.407-0.181-0.882-0.271-1.425-0.271c-0.543,0-1.018,0.091-1.425,0.271c-0.407,0.181-0.761,0.423-1.063,0.724
				c-0.513,0.528-0.852,1.116-1.018,1.764c-0.166,0.648-0.249,1.342-0.249,2.081c0,0.739,0.082,1.433,0.249,2.081
				c0.166,0.649,0.505,1.237,1.018,1.764c0.301,0.302,0.656,0.543,1.063,0.723c0.407,0.181,0.882,0.271,1.425,0.271
				c0.543,0,1.018-0.09,1.425-0.271c0.407-0.181,0.761-0.422,1.063-0.723c0.513-0.528,0.852-1.116,1.018-1.764
				C100.144,20.795,100.228,20.102,100.228,19.362z"/>
			<path style="fill:#1A1A18;" d="M110.768,14.793c-0.181-0.045-0.366-0.075-0.554-0.09c-0.189-0.015-0.373-0.023-0.554-0.023
				c-0.709,0-1.293,0.143-1.753,0.429c-0.46,0.287-0.825,0.664-1.097,1.131c-0.271,0.467-0.463,0.995-0.577,1.583
				c-0.113,0.588-0.169,1.176-0.169,1.764v5.428h-1.131V13.708h0.995l0.136,2.284c0.256-0.784,0.72-1.38,1.391-1.787
				c0.671-0.407,1.406-0.611,2.206-0.611c0.181,0,0.365,0.004,0.554,0.011c0.188,0.008,0.373,0.026,0.554,0.057V14.793z"/>
			<path style="fill:#1A1A18;" d="M118.956,24.904c-0.317,0.076-0.63,0.14-0.939,0.193c-0.309,0.053-0.622,0.079-0.939,0.079
				c-1.055,0-1.806-0.306-2.251-0.916c-0.445-0.611-0.667-1.406-0.667-2.386v-7.125h-2.262v-1.04h2.262v-3.122l1.131-0.271v3.393
				h3.506v1.04h-3.506v7.08c0,0.332,0.026,0.637,0.079,0.916c0.053,0.279,0.15,0.52,0.294,0.724
				c0.143,0.203,0.335,0.362,0.577,0.475c0.241,0.113,0.55,0.17,0.927,0.17c0.302,0,0.599-0.019,0.893-0.057
				c0.294-0.038,0.592-0.087,0.894-0.147V24.904z"/>
			<path style="fill:#1A1A18;" d="M136.417,25.017v-7.396c0-0.98-0.203-1.749-0.611-2.307c-0.407-0.558-1.101-0.837-2.081-0.837
				c-0.438,0-0.818,0.068-1.142,0.204c-0.324,0.135-0.615,0.324-0.871,0.565c-0.437,0.422-0.769,0.92-0.995,1.493
				c-0.226,0.573-0.339,1.199-0.339,1.878v6.401h-1.154v-7.396c0-0.98-0.207-1.749-0.622-2.307
				c-0.415-0.558-1.112-0.837-2.092-0.837c-0.437,0-0.818,0.068-1.142,0.204c-0.324,0.135-0.615,0.324-0.871,0.565
				c-0.513,0.483-0.868,1.086-1.063,1.809c-0.196,0.724-0.294,1.493-0.294,2.307v5.655h-1.131V13.708h0.995l0.136,1.945
				c0.301-0.648,0.746-1.184,1.335-1.606c0.588-0.422,1.289-0.633,2.103-0.633c0.995,0,1.783,0.222,2.364,0.667
				c0.58,0.445,0.984,1.037,1.21,1.776c0.302-0.708,0.75-1.293,1.346-1.753c0.596-0.46,1.361-0.689,2.296-0.689
				c0.663,0,1.233,0.101,1.708,0.305c0.475,0.203,0.863,0.49,1.165,0.859c0.302,0.37,0.524,0.807,0.667,1.312
				c0.143,0.506,0.215,1.06,0.215,1.663v7.464H136.417z"/>
			<path style="fill:#1A1A18;" d="M149.559,24.995l-0.136-2.058c-0.166,0.362-0.381,0.69-0.645,0.984
				c-0.264,0.294-0.565,0.543-0.905,0.747s-0.705,0.358-1.097,0.464c-0.392,0.105-0.784,0.158-1.176,0.158
				c-1.312,0-2.304-0.369-2.974-1.108c-0.671-0.739-1.007-1.749-1.007-3.031v-7.464h1.131v7.396c0,0.995,0.227,1.761,0.679,2.296
				c0.453,0.535,1.199,0.803,2.239,0.803c0.694,0,1.282-0.136,1.764-0.407c0.482-0.271,0.871-0.633,1.165-1.086
				c0.294-0.452,0.505-0.969,0.634-1.549c0.128-0.58,0.192-1.18,0.192-1.798v-5.654h1.131v11.309H149.559z"/>
			<path style="fill:#1A1A18;" d="M162.881,25.017v-7.396c0-0.995-0.227-1.76-0.679-2.296c-0.453-0.535-1.199-0.803-2.24-0.803
				c-0.694,0-1.282,0.14-1.764,0.419c-0.483,0.279-0.871,0.645-1.165,1.097c-0.294,0.453-0.506,0.969-0.633,1.55
				c-0.128,0.581-0.192,1.172-0.192,1.775v5.655h-1.131V13.708h0.995l0.136,2.058c0.15-0.362,0.361-0.686,0.633-0.973
				c0.271-0.286,0.576-0.531,0.916-0.735c0.339-0.204,0.705-0.362,1.097-0.475c0.391-0.113,0.784-0.169,1.176-0.169
				c1.312,0,2.303,0.37,2.974,1.108c0.67,0.739,1.007,1.749,1.007,3.031v7.464H162.881z"/>
			<path style="fill:#1A1A18;" d="M176.044,25.017l-0.136-1.99c-0.151,0.347-0.362,0.664-0.633,0.95
				c-0.272,0.287-0.574,0.528-0.905,0.724c-0.332,0.196-0.689,0.347-1.075,0.453c-0.384,0.105-0.765,0.158-1.142,0.158
				c-0.649,0-1.219-0.094-1.708-0.283c-0.49-0.188-0.924-0.448-1.301-0.781c-0.633-0.558-1.101-1.263-1.402-2.115
				c-0.302-0.852-0.452-1.768-0.452-2.748c0-0.935,0.143-1.824,0.429-2.669c0.286-0.844,0.732-1.553,1.335-2.126
				c0.377-0.362,0.818-0.648,1.324-0.859c0.505-0.211,1.089-0.317,1.753-0.317c0.407,0,0.803,0.053,1.187,0.158
				c0.385,0.106,0.743,0.256,1.075,0.453c0.332,0.196,0.63,0.429,0.893,0.701c0.264,0.272,0.471,0.566,0.622,0.882V8.687h1.131
				v16.331H176.044z M175.931,19.362c0-0.844-0.106-1.595-0.317-2.251c-0.211-0.656-0.581-1.225-1.108-1.708
				c-0.286-0.271-0.622-0.486-1.007-0.645c-0.384-0.158-0.841-0.237-1.368-0.237c-0.528,0-0.988,0.091-1.38,0.271
				c-0.392,0.181-0.739,0.423-1.041,0.724c-0.437,0.483-0.757,1.063-0.961,1.742c-0.203,0.679-0.305,1.38-0.305,2.103
				c0,0.814,0.117,1.576,0.351,2.284c0.234,0.709,0.614,1.297,1.142,1.764c0.286,0.256,0.611,0.453,0.973,0.588
				c0.361,0.136,0.784,0.203,1.267,0.203c0.497,0,0.934-0.082,1.312-0.249c0.376-0.166,0.708-0.385,0.995-0.656
				c0.513-0.497,0.882-1.082,1.108-1.753C175.818,20.875,175.931,20.147,175.931,19.362z"/>
		</g>
		<g>
			<path style="fill:#1A1A18;" d="M86.067,48.65l-0.136-2.058c-0.166,0.362-0.381,0.69-0.645,0.984
				c-0.264,0.294-0.565,0.543-0.905,0.747c-0.339,0.203-0.705,0.358-1.097,0.464c-0.392,0.105-0.784,0.158-1.176,0.158
				c-1.312,0-2.304-0.369-2.974-1.108c-0.671-0.739-1.007-1.749-1.007-3.031v-7.464h1.131v7.396c0,0.995,0.226,1.761,0.679,2.296
				c0.453,0.535,1.199,0.803,2.239,0.803c0.694,0,1.282-0.136,1.764-0.407c0.482-0.271,0.871-0.633,1.165-1.086
				c0.294-0.452,0.505-0.969,0.634-1.549c0.128-0.58,0.192-1.18,0.192-1.798v-5.654h1.131V48.65H86.067z"/>
			<path style="fill:#1A1A18;" d="M99.389,48.672v-7.396c0-0.995-0.226-1.76-0.679-2.296c-0.452-0.535-1.199-0.803-2.239-0.803
				c-0.694,0-1.282,0.14-1.764,0.419c-0.483,0.279-0.871,0.645-1.165,1.097c-0.294,0.453-0.505,0.969-0.633,1.55
				c-0.128,0.581-0.192,1.172-0.192,1.775v5.655h-1.131V37.363h0.995l0.136,2.058c0.15-0.362,0.362-0.686,0.633-0.973
				c0.271-0.286,0.577-0.531,0.916-0.735c0.339-0.204,0.705-0.362,1.097-0.475c0.392-0.113,0.784-0.169,1.176-0.169
				c1.312,0,2.303,0.37,2.974,1.108c0.671,0.739,1.007,1.749,1.007,3.031v7.464H99.389z"/>
			<path style="fill:#1A1A18;" d="M104.727,34.219v-1.583h1.584v1.583H104.727z M104.931,48.672V37.363h1.199v11.309H104.931z"/>
			<path style="fill:#1A1A18;" d="M114.453,48.672h-1.154l-4.478-11.309h1.289l3.8,9.703l3.642-9.703h1.199L114.453,48.672z"/>
			<path style="fill:#1A1A18;" d="M130.15,43.289h-8.64c0.014,0.664,0.124,1.286,0.328,1.866c0.203,0.581,0.486,1.089,0.848,1.527
				c0.317,0.377,0.697,0.671,1.142,0.882c0.444,0.212,0.976,0.317,1.595,0.317c1.01,0,1.832-0.331,2.465-0.995
				c0.211-0.211,0.388-0.444,0.532-0.701c0.143-0.256,0.252-0.558,0.328-0.905h1.176c-0.076,0.483-0.226,0.924-0.453,1.323
				c-0.226,0.4-0.497,0.751-0.814,1.052c-0.407,0.407-0.886,0.728-1.436,0.961s-1.15,0.351-1.798,0.351
				c-0.814,0-1.516-0.151-2.104-0.453c-0.588-0.301-1.086-0.686-1.493-1.153c-0.467-0.543-0.826-1.18-1.075-1.911
				c-0.249-0.731-0.373-1.527-0.373-2.386c0-0.724,0.075-1.425,0.226-2.103c0.151-0.679,0.445-1.32,0.882-1.923
				c0.965-1.311,2.246-1.967,3.845-1.967c0.769,0,1.451,0.151,2.047,0.452c0.595,0.302,1.1,0.705,1.515,1.21
				c0.415,0.506,0.731,1.09,0.95,1.753c0.218,0.664,0.328,1.35,0.328,2.058L130.15,43.289z M129.019,42.249
				c-0.015-0.543-0.106-1.06-0.271-1.55c-0.166-0.49-0.407-0.927-0.724-1.312c-0.317-0.384-0.701-0.689-1.154-0.916
				c-0.452-0.226-0.965-0.339-1.538-0.339c-0.588,0-1.116,0.11-1.583,0.328c-0.467,0.219-0.863,0.517-1.188,0.894
				s-0.577,0.814-0.757,1.312c-0.181,0.497-0.271,1.026-0.271,1.583H129.019z"/>
			<path style="fill:#1A1A18;" d="M139.424,38.449c-0.181-0.045-0.366-0.075-0.554-0.09c-0.189-0.015-0.373-0.023-0.554-0.023
				c-0.709,0-1.293,0.143-1.753,0.429c-0.46,0.287-0.825,0.664-1.097,1.131c-0.271,0.467-0.463,0.995-0.577,1.583
				c-0.113,0.588-0.169,1.176-0.169,1.764v5.428h-1.131V37.363h0.995l0.136,2.284c0.256-0.784,0.72-1.38,1.391-1.787
				c0.671-0.407,1.406-0.611,2.206-0.611c0.181,0,0.365,0.004,0.554,0.011c0.188,0.008,0.373,0.026,0.554,0.057V38.449z"/>
			<path style="fill:#1A1A18;" d="M150.325,45.529c0,0.799-0.256,1.493-0.769,2.081c-0.407,0.453-0.931,0.792-1.572,1.018
				c-0.641,0.226-1.339,0.339-2.092,0.339c-0.769,0-1.47-0.121-2.104-0.362c-0.633-0.241-1.169-0.603-1.606-1.085
				c-0.317-0.362-0.547-0.716-0.69-1.063c-0.143-0.347-0.23-0.754-0.26-1.221h1.154c0.06,0.664,0.339,1.244,0.837,1.741
				c0.332,0.317,0.724,0.547,1.176,0.69c0.452,0.144,0.95,0.215,1.493,0.215c0.588,0,1.108-0.067,1.561-0.203
				c0.453-0.136,0.822-0.347,1.108-0.633c0.211-0.211,0.366-0.422,0.463-0.633c0.098-0.211,0.147-0.482,0.147-0.814
				c0-0.512-0.178-0.961-0.531-1.345c-0.355-0.385-0.871-0.622-1.55-0.713l-2.194-0.294c-0.467-0.06-0.931-0.174-1.391-0.339
				s-0.848-0.43-1.165-0.792c-0.422-0.497-0.633-1.093-0.633-1.787c0-0.453,0.087-0.863,0.26-1.233
				c0.173-0.369,0.411-0.69,0.713-0.961c0.407-0.376,0.878-0.648,1.414-0.814c0.535-0.166,1.097-0.249,1.685-0.249
				c0.679,0,1.32,0.109,1.923,0.328c0.603,0.218,1.101,0.554,1.493,1.006c0.256,0.302,0.46,0.633,0.611,0.995
				c0.15,0.362,0.234,0.724,0.249,1.086h-1.131c-0.03-0.181-0.087-0.4-0.17-0.656c-0.083-0.256-0.215-0.49-0.396-0.701
				c-0.256-0.301-0.603-0.543-1.04-0.724c-0.438-0.181-0.95-0.271-1.538-0.271c-0.875,0-1.553,0.174-2.035,0.521
				c-0.588,0.422-0.882,0.942-0.882,1.561c0,0.483,0.151,0.89,0.453,1.221c0.301,0.332,0.882,0.558,1.742,0.679l2.149,0.294
				c0.528,0.076,0.988,0.215,1.38,0.419c0.392,0.203,0.716,0.449,0.973,0.735c0.256,0.286,0.448,0.599,0.577,0.939
				C150.261,44.839,150.325,45.182,150.325,45.529z"/>
			<path style="fill:#1A1A18;" d="M153.786,34.219v-1.583h1.584v1.583H153.786z M153.99,48.672V37.363h1.199v11.309H153.99z"/>
			<path style="fill:#1A1A18;" d="M165.163,48.559c-0.316,0.076-0.63,0.14-0.939,0.193c-0.309,0.053-0.622,0.079-0.939,0.079
				c-1.055,0-1.806-0.306-2.251-0.916c-0.445-0.611-0.667-1.406-0.667-2.386v-7.125h-2.262v-1.04h2.262v-3.122l1.131-0.271v3.393
				h3.506v1.04h-3.506v7.08c0,0.332,0.026,0.637,0.079,0.916c0.053,0.279,0.151,0.52,0.294,0.724
				c0.143,0.203,0.335,0.362,0.577,0.475c0.241,0.113,0.55,0.17,0.927,0.17c0.302,0,0.6-0.019,0.893-0.057
				c0.294-0.038,0.592-0.087,0.893-0.147V48.559z"/>
			<path style="fill:#1A1A18;" d="M171.293,51.093c-0.286,0.738-0.675,1.308-1.165,1.707c-0.49,0.4-1.12,0.6-1.888,0.6
				c-0.227,0-0.43-0.008-0.612-0.023c-0.18-0.015-0.332-0.038-0.452-0.068c-0.15-0.03-0.271-0.068-0.361-0.113v-0.95
				c0.15,0.03,0.309,0.053,0.475,0.068c0.272,0.045,0.573,0.068,0.905,0.068c0.543,0,0.972-0.159,1.289-0.475
				c0.316-0.317,0.573-0.716,0.768-1.199l0.724-1.855l-4.637-11.49h1.222l3.958,10.043l3.8-10.043h1.221L171.293,51.093z"/>
		</g>
	</g>
</g>
</svg>
